<?xml version="1.0" standalone="no"?><!DOCTYPE svg PUBLIC "-//W3C//DTD SVG 1.1//EN" "http://www.w3.org/Graphics/SVG/1.1/DTD/svg11.dtd"><svg t="1721056758035" class="icon" viewBox="0 0 1024 1024" version="1.1" xmlns="http://www.w3.org/2000/svg" p-id="6111" xmlns:xlink="http://www.w3.org/1999/xlink" width="128" height="128"><path d="M544.256 552.448v247.808c0 17.92-14.336 32.256-32.256 32.256-17.408 0.512-31.744-13.312-32.256-30.72V552.448L256 422.912c-15.36-8.704-20.48-28.16-11.776-43.52 8.704-14.848 27.648-20.48 42.496-11.776 0.512 0 0.512 0.512 1.024 0.512l224.256 128 222.208-128c14.848-8.704 34.304-4.096 43.008 10.752 0 0.512 0.512 0.512 0.512 1.024 8.704 15.36 3.584 34.816-11.776 43.52l-222.208 128v1.024z" fill="#d81e06" p-id="6112"></path><path d="M64 256v512l448 256 448-256V256L512 0 64 256zM896 736.256l-384 224.256-384-224.256V288.256l384-224.256 384 224.256v448z" fill="#d81e06" p-id="6113"></path></svg>